<?xml version="1.0" encoding="iso-8859-1"?>
<!-- Generator: Adobe Illustrator 21.1.0, SVG Export Plug-In . SVG Version: 6.00 Build 0)  -->
<svg xmlns="http://www.w3.org/2000/svg" xmlns:xlink="http://www.w3.org/1999/xlink" version="1.1" id="Layer_1" x="0px" y="0px" viewBox="0 0 48 48" style="enable-background:new 0 0 48 48;" xml:space="preserve">
<path style="fill:#80D8FF;" d="M40.641,36.776c0.011-0.015,0.025-0.028,0.036-0.043l-0.035,0.008  c-0.011,0.015-0.023,0.028-0.035,0.043L40.641,36.776z"/>
<path style="fill:#00E5FF;" d="M14.157,42.529c4.238,2.263,9.265,3.093,14.328,1.986s9.285-3.959,12.192-7.783L14.157,42.529z"/>
<path style="fill:#80D8FF;" d="M14.167,42.527l26.475-5.787c1.343-1.758,2.423-3.711,3.159-5.809L8.897,38.561  c1.538,1.592,3.316,2.931,5.26,3.968L14.167,42.527z"/>
<path style="fill:#82B1FF;" d="M44.936,25.565l-39.31,8.592c0.899,1.628,2.011,3.1,3.276,4.41l34.892-7.617  C44.4,29.229,44.798,27.424,44.936,25.565z"/>
<path style="fill:#8C9EFF;" d="M44.936,25.565c0.147-1.979,0.025-4.011-0.42-6.05L3.484,28.484c0.446,2.038,1.182,3.936,2.142,5.673  L44.936,25.565z"/>
<path style="fill:#B388FF;" d="M44.516,19.516c-0.391-1.789-1.021-3.46-1.813-5.021l-39.66,8.538  c-0.082,1.791,0.041,3.617,0.442,5.452L44.516,19.516z"/>
<path style="fill:#EA80FC;" d="M42.702,14.495c0.014,0.027,0.036,0.051,0.051,0.077c-1.155-2.291-2.697-4.319-4.534-6.008  l-33.582,7.34c-0.936,2.233-1.466,4.642-1.58,7.125L42.702,14.495z"/>
<path style="fill:#FF80AB;" d="M38.219,8.564c0.013,0.012,0.03,0.019,0.044,0.031c-1.829-1.688-3.947-3.041-6.248-3.994L8.622,9.714  c-1.679,1.811-3.016,3.912-3.971,6.187L38.219,8.564z"/>
<path style="fill:#FF8A80;" d="M8.622,9.714l23.393-5.113c-3.824-1.584-8.149-2.067-12.5-1.116  C15.165,4.435,11.436,6.679,8.622,9.714C8.622,9.714,8.622,9.714,8.622,9.714z"/>
<path style="fill:#FFFFFF;" d="M24,5C13.507,5,5,13.507,5,24s8.507,19,19,19s19-8.507,19-19S34.493,5,24,5z M34,28.866  C34,31.701,31.701,34,28.866,34h-0.101c-1.785,0-3.452-1.214-3.725-2.977c-0.05-0.325-0.053-0.649-0.01-0.973  c0.18-1.39,1.17-2.52,2.48-2.91l0.29-0.07l3.447-0.878C31.69,26.079,32,25.68,32,25.223v-7.164c0-0.622-0.561-1.093-1.174-0.985  l-8.676,1.884C21.485,19.075,21,19.653,21,20.329v11.537C21,34.701,18.701,37,15.866,37h-0.101c-1.785,0-3.452-1.214-3.725-2.977  c-0.05-0.325-0.053-0.649-0.01-0.973c0.18-1.39,1.17-2.52,2.48-2.91l0.29-0.07l3.447-0.878C18.69,29.079,19,28.68,19,28.223V13.956  c0-0.664,0.476-1.232,1.13-1.347l12.696-2.594C33.439,9.907,34,10.378,34,11V28.866z"/>
</svg>
